name rise45.9887peak57.8056fall74.9286.mot
datacolumns 19
datarows 35
range 4.33998900000000 4.39665500000000
endheader
time	ground_force1_vx	ground_force1_vy	ground_force1_vz	ground_force1_px	ground_force1_py	ground_force1_pz	ground_force2_vx	ground_force2_vy	ground_force2_vz	ground_force2_px	ground_force2_py	ground_force2_pz	ground_torque1_x	ground_torque1_y	ground_torque1_z	ground_torque2_x	ground_torque2_y	ground_torque2_z	
4.33998900000000	-1.44599400000000	42.06709300000000	-5.86417200000000	0.32026300000000	0.00000000000000	0.09716800000000	-51.19434200000000	817.39455299999997	-60.31881900000000	0.13959000000000	0.00000000000000	-0.09173800000000	0.00000000000000	-4.55574600000000	0.00000000000000	0.00000000000000	-25.42979000000000	0.00000000000000	
4.34164900000000	-1.53345600000000	49.20291500000000	-6.62890100000000	0.32670100000000	0.00000000000000	0.09781600000000	-51.66891000000000	815.60496799999999	-60.12280900000000	0.13880300000000	0.00000000000000	-0.09168600000000	0.00000000000000	-5.19705300000000	0.00000000000000	0.00000000000000	-25.35133600000000	0.00000000000000	
4.34332000000000	-1.57419000000000	56.39655500000000	-7.33505100000000	0.33255300000000	0.00000000000000	0.09840000000000	-52.14846900000000	813.68100000000004	-59.89937600000000	0.13802800000000	0.00000000000000	-0.09163000000000	0.00000000000000	-5.80098200000000	0.00000000000000	0.00000000000000	-25.26917800000000	0.00000000000000	
4.34498700000000	-1.56194600000000	63.55093900000000	-7.96664500000000	0.33791300000000	0.00000000000000	0.09892800000000	-52.63305400000000	811.62116300000002	-59.64833000000000	0.13726400000000	0.00000000000000	-0.09156800000000	0.00000000000000	-6.35415900000000	0.00000000000000	0.00000000000000	-25.18340800000000	0.00000000000000	
4.34665300000000	-1.49230800000000	70.59256999999999	-8.51261000000000	0.34285400000000	0.00000000000000	0.09940900000000	-53.12266100000000	809.42402100000004	-59.36951900000000	0.13651300000000	0.00000000000000	-0.09150100000000	0.00000000000000	-6.84708800000000	0.00000000000000	0.00000000000000	-25.09411600000000	0.00000000000000	
4.34831600000000	-1.36269800000000	77.47370100000001	-8.96690200000000	0.34743700000000	0.00000000000000	0.09985000000000	-53.61724000000000	807.08818199999996	-59.06282600000000	0.13577400000000	0.00000000000000	-0.09142900000000	0.00000000000000	-7.27433600000000	0.00000000000000	0.00000000000000	-25.00138700000000	0.00000000000000	
4.34999000000000	-1.17223400000000	84.17201900000001	-9.32819900000000	0.35171000000000	0.00000000000000	0.10025600000000	-54.11669800000000	804.61230599999999	-58.72817700000000	0.13504900000000	0.00000000000000	-0.09135100000000	0.00000000000000	-7.63434300000000	0.00000000000000	0.00000000000000	-24.90530500000000	0.00000000000000	
4.35165000000000	-0.92148400000000	90.68830000000000	-9.59926000000000	0.35571200000000	0.00000000000000	0.10063100000000	-54.62089700000000	801.99510399999997	-58.36553400000000	0.13433900000000	0.00000000000000	-0.09126800000000	0.00000000000000	-7.92895300000000	0.00000000000000	0.00000000000000	-24.80594900000000	0.00000000000000	
4.35331900000000	-0.61215300000000	97.04255999999999	-9.78606700000000	0.35947700000000	0.00000000000000	0.10098000000000	-55.12965000000000	799.23533599999996	-57.97489800000000	0.13364400000000	0.00000000000000	-0.09117900000000	0.00000000000000	-8.16274400000000	0.00000000000000	0.00000000000000	-24.70339400000000	0.00000000000000	
4.35498700000000	-0.24673800000000	103.26929900000000	-9.89684600000000	0.36303300000000	0.00000000000000	0.10130500000000	-55.64272200000000	796.33181800000000	-57.55631100000000	0.13296400000000	0.00000000000000	-0.09108400000000	0.00000000000000	-8.34223800000000	0.00000000000000	0.00000000000000	-24.59770800000000	0.00000000000000	
4.35664900000000	0.17181300000000	109.41238500000000	-9.94107900000000	0.36640100000000	0.00000000000000	0.10160900000000	-56.15982700000000	793.28342099999998	-57.10985400000000	0.13230100000000	0.00000000000000	-0.09098300000000	0.00000000000000	-8.47509800000000	0.00000000000000	0.00000000000000	-24.48895500000000	0.00000000000000	
4.35831500000000	0.64040600000000	115.52005500000000	-9.92859400000000	0.36960200000000	0.00000000000000	0.10189500000000	-56.68062800000000	790.08907299999998	-56.63564900000000	0.13165500000000	0.00000000000000	-0.09087500000000	0.00000000000000	-8.56936300000000	0.00000000000000	0.00000000000000	-24.37719300000000	0.00000000000000	
4.35998200000000	1.15606200000000	121.64041600000000	-9.86877600000000	0.37265100000000	0.00000000000000	0.10216500000000	-57.20474000000000	786.74776099999997	-56.13385900000000	0.13102600000000	0.00000000000000	-0.09076200000000	0.00000000000000	-8.63278300000000	0.00000000000000	0.00000000000000	-24.26247200000000	0.00000000000000	
4.36165600000000	1.71611300000000	127.81770899999999	-9.76995200000000	0.37556200000000	0.00000000000000	0.10242000000000	-57.73172000000000	783.25853600000005	-55.60469000000000	0.13041500000000	0.00000000000000	-0.09064200000000	0.00000000000000	-8.67228700000000	0.00000000000000	0.00000000000000	-24.14483500000000	0.00000000000000	
4.36332200000000	2.31832900000000	134.08950300000001	-9.63897000000000	0.37834700000000	0.00000000000000	0.10266200000000	-58.26107500000000	779.62050999999997	-55.04838600000000	0.12982200000000	0.00000000000000	-0.09051600000000	0.00000000000000	-8.69360800000000	0.00000000000000	0.00000000000000	-24.02432000000000	0.00000000000000	
4.36499900000000	2.96098100000000	140.48484800000000	-9.48095700000000	0.38101600000000	0.00000000000000	0.10289200000000	-58.79225900000000	775.83286499999997	-54.46523700000000	0.12924800000000	0.00000000000000	-0.09038400000000	0.00000000000000	-8.70106300000000	0.00000000000000	0.00000000000000	-23.90095500000000	0.00000000000000	
4.36665300000000	3.64285100000000	147.02338399999999	-9.29926000000000	0.38357600000000	0.00000000000000	0.10311100000000	-59.32467000000000	771.89485000000002	-53.85557500000000	0.12869300000000	0.00000000000000	-0.09024500000000	0.00000000000000	-8.69747400000000	0.00000000000000	0.00000000000000	-23.77476200000000	0.00000000000000	
4.36832600000000	4.36318400000000	153.71527000000000	-9.09552300000000	0.38603500000000	0.00000000000000	0.10332100000000	-59.85765300000000	767.80578700000001	-53.21977300000000	0.12815700000000	0.00000000000000	-0.09009900000000	0.00000000000000	-8.68422500000000	0.00000000000000	0.00000000000000	-23.64575500000000	0.00000000000000	
4.36999000000000	5.12161400000000	160.56181599999999	-8.86988500000000	0.38839800000000	0.00000000000000	0.10352200000000	-60.39049800000000	763.56507399999998	-52.55824900000000	0.12764100000000	0.00000000000000	-0.08994700000000	0.00000000000000	-8.66140300000000	0.00000000000000	0.00000000000000	-23.51393900000000	0.00000000000000	
4.37165200000000	5.91805600000000	167.55661900000001	-8.62125800000000	0.39067200000000	0.00000000000000	0.10371600000000	-60.92244100000000	759.17218300000002	-51.87146500000000	0.12714400000000	0.00000000000000	-0.08978800000000	0.00000000000000	-8.62802500000000	0.00000000000000	0.00000000000000	-23.37931400000000	0.00000000000000	
4.37331700000000	6.75259700000000	174.68704700000001	-8.34763800000000	0.39285900000000	0.00000000000000	0.10390200000000	-61.45266500000000	754.62666999999999	-51.15992400000000	0.12666700000000	0.00000000000000	-0.08962300000000	0.00000000000000	-8.58229600000000	0.00000000000000	0.00000000000000	-23.24186900000000	0.00000000000000	
4.37498500000000	7.62537700000000	181.93587600000001	-8.04644300000000	0.39496400000000	0.00000000000000	0.10408300000000	-61.98029900000000	749.92817000000002	-50.42417600000000	0.12621000000000	0.00000000000000	-0.08945000000000	0.00000000000000	-8.52188400000000	0.00000000000000	0.00000000000000	-23.10158700000000	0.00000000000000	
4.37665400000000	8.53648200000000	189.28294600000001	-7.71482200000000	0.39698900000000	0.00000000000000	0.10425700000000	-62.50441800000000	745.07640600000002	-49.66481300000000	0.12577200000000	0.00000000000000	-0.08927100000000	0.00000000000000	-8.44419000000000	0.00000000000000	0.00000000000000	-22.95844500000000	0.00000000000000	
4.37831800000000	9.48585400000000	196.70670899999999	-7.34994300000000	0.39893700000000	0.00000000000000	0.10442600000000	-63.02404800000000	740.07119000000000	-48.88247200000000	0.12535300000000	0.00000000000000	-0.08908500000000	0.00000000000000	-8.34658500000000	0.00000000000000	0.00000000000000	-22.81240900000000	0.00000000000000	
4.37998600000000	10.47321600000000	204.18556699999999	-6.94921800000000	0.40080900000000	0.00000000000000	0.10459100000000	-63.53816200000000	734.91242199999999	-48.07783200000000	0.12495400000000	0.00000000000000	-0.08889300000000	0.00000000000000	-8.22661100000000	0.00000000000000	0.00000000000000	-22.66344300000000	0.00000000000000	
4.38165000000000	11.49801700000000	211.69895900000000	-6.51048500000000	0.40260700000000	0.00000000000000	0.10475100000000	-64.04568399999999	729.60010199999999	-47.25161600000000	0.12457400000000	0.00000000000000	-0.08869300000000	0.00000000000000	-8.08213900000000	0.00000000000000	0.00000000000000	-22.51150100000000	0.00000000000000	
4.38331600000000	12.55940500000000	219.22815299999999	-6.03212300000000	0.40433300000000	0.00000000000000	0.10490800000000	-64.54549100000000	724.13432499999999	-46.40459000000000	0.12421200000000	0.00000000000000	-0.08848700000000	0.00000000000000	-7.91146800000000	0.00000000000000	0.00000000000000	-22.35653200000000	0.00000000000000	
4.38498300000000	13.65621100000000	226.75675699999999	-5.51311000000000	0.40598700000000	0.00000000000000	0.10506100000000	-65.03641300000000	718.51529000000005	-45.53756300000000	0.12386900000000	0.00000000000000	-0.08827500000000	0.00000000000000	-7.71339100000000	0.00000000000000	0.00000000000000	-22.19847900000000	0.00000000000000	
4.38664900000000	14.78695800000000	234.27095700000001	-4.95304300000000	0.40757000000000	0.00000000000000	0.10521100000000	-65.51723600000000	712.74330399999997	-44.65138500000000	0.12354200000000	0.00000000000000	-0.08805600000000	0.00000000000000	-7.48720400000000	0.00000000000000	0.00000000000000	-22.03728100000000	0.00000000000000	
4.38831600000000	15.94988000000000	241.75952599999999	-4.35210300000000	0.40908100000000	0.00000000000000	0.10535800000000	-65.98670700000000	706.81878500000005	-43.74694600000000	0.12323300000000	0.00000000000000	-0.08783000000000	0.00000000000000	-7.23268800000000	0.00000000000000	0.00000000000000	-21.87287100000000	0.00000000000000	
4.38998500000000	17.14295000000000	249.21365200000000	-3.71099900000000	0.41052200000000	0.00000000000000	0.10550300000000	-66.44353200000000	700.74227199999996	-42.82517800000000	0.12294000000000	0.00000000000000	-0.08759800000000	0.00000000000000	-6.95006700000000	0.00000000000000	0.00000000000000	-21.70518100000000	0.00000000000000	
4.39165300000000	18.36391800000000	256.62663600000002	-3.03089100000000	0.41189200000000	0.00000000000000	0.10564500000000	-66.88638100000000	694.51442599999996	-41.88704900000000	0.12266200000000	0.00000000000000	-0.08735900000000	0.00000000000000	-6.63993800000000	0.00000000000000	0.00000000000000	-21.53413500000000	0.00000000000000	
4.39332200000000	19.61035000000000	263.99350600000002	-2.31329600000000	0.41319000000000	0.00000000000000	0.10578500000000	-67.31389299999999	688.13604099999998	-40.93356600000000	0.12239900000000	0.00000000000000	-0.08711400000000	0.00000000000000	-6.30320300000000	0.00000000000000	0.00000000000000	-21.35966000000000	0.00000000000000	
4.39498900000000	20.87967200000000	271.31059499999998	-1.56000100000000	0.41441700000000	0.00000000000000	0.10592400000000	-67.72467600000000	681.60804800000005	-39.96577100000000	0.12214900000000	0.00000000000000	-0.08686300000000	0.00000000000000	-5.94098700000000	0.00000000000000	0.00000000000000	-21.18167700000000	0.00000000000000	
4.39665500000000	22.16920000000000	278.57513499999999	-0.77297800000000	0.41557200000000	0.00000000000000	0.10606000000000	-68.11731300000000	674.93152499999997	-38.98474000000000	0.12191200000000	0.00000000000000	-0.08660600000000	0.00000000000000	-5.55457000000000	0.00000000000000	0.00000000000000	-21.00010800000000	0.00000000000000	
